<svg class="custom-logo" height="100%" style="fill-rule:evenodd;clip-rule:evenodd;stroke-linejoin:round;stroke-miterlimit:2;" version="1.1" viewbox="0 0 2992 1463" width="100%" xml:space="preserve" xmlns="http://www.w3.org/2000/svg" xmlns:serif="http://www.serif.com/" xmlns:xlink="http://www.w3.org/1999/xlink">
<g transform="matrix(4.16667,0,0,4.16667,0,0)">
<path d="M429.912,169.212C427.262,169.716 424.801,170.032 419.435,170.032C411.674,170.032 402.775,165.866 402.775,150.53L402.775,141.759C402.775,126.296 411.674,122.257 419.435,122.257C423.412,122.257 427.262,122.825 430.039,123.266C430.606,123.331 431.049,123.52 431.049,124.087L431.049,127.305C431.049,127.684 430.922,128.001 430.291,128.001L430.101,128.001C427.83,127.811 423.159,127.432 419.499,127.432C413.314,127.432 408.517,131.03 408.517,141.759L408.517,150.53C408.517,161.134 413.314,164.856 419.499,164.856C423.097,164.856 427.641,164.542 429.912,164.352L430.165,164.352C430.859,164.352 431.175,164.667 431.175,165.362L431.175,167.95C431.175,168.706 430.606,169.085 429.912,169.212Z" style="fill:rgb(243,203,45);fill-rule:nonzero;"></path>
<path d="M463.299,169.591L460.269,169.591C459.575,169.591 459.008,169.022 459.008,168.329L459.008,147.565C459.008,141.253 456.356,139.298 452.255,139.298C450.298,139.298 446.322,139.802 443.545,141.065L443.545,168.329C443.545,168.96 442.977,169.591 442.283,169.591L439.19,169.591C438.559,169.591 437.992,169.022 437.992,168.329L437.992,123.393C437.992,122.7 438.496,122.132 439.19,122.132L442.347,122.132C443.041,122.132 443.545,122.7 443.545,123.393L443.545,136.393C446.574,135.069 450.487,134.438 453.201,134.438C459.891,134.438 464.561,138.288 464.561,147.565L464.561,168.329C464.561,169.022 463.993,169.591 463.299,169.591Z" style="fill:rgb(243,203,45);fill-rule:nonzero;"></path>
<path d="M487.724,139.233C484.82,139.233 482.17,139.991 479.014,141.886L479.014,168.329C479.014,168.96 478.446,169.591 477.752,169.591L474.659,169.591C474.028,169.591 473.461,169.022 473.461,168.329L473.461,136.141C473.461,135.448 473.965,134.88 474.659,134.88L477.626,134.88C478.32,134.88 478.825,135.448 478.825,136.141L478.825,137.468C481.98,135.259 484.884,134.438 487.724,134.438C488.607,134.438 489.049,134.817 489.049,135.573L489.049,138.161C489.049,138.856 488.607,139.233 487.724,139.233Z" style="fill:rgb(243,203,45);fill-rule:nonzero;"></path>
<path d="M500.346,169.591L497.316,169.591C496.622,169.591 496.054,169.022 496.054,168.329L496.054,136.141C496.054,135.448 496.622,134.88 497.316,134.88L500.346,134.88C501.04,134.88 501.607,135.448 501.607,136.141L501.607,168.329C501.607,169.022 501.04,169.591 500.346,169.591ZM500.472,129.325L497.253,129.325C496.558,129.325 495.991,128.759 495.991,128.063L495.991,123.014C495.991,122.321 496.558,121.753 497.253,121.753L500.472,121.753C501.166,121.753 501.734,122.321 501.734,123.014L501.734,128.063C501.734,128.759 501.166,129.325 500.472,129.325Z" style="fill:rgb(243,203,45);fill-rule:nonzero;"></path>
<path d="M521.425,170.032C519.09,170.032 514.546,169.843 511.453,169.085C510.633,168.895 510.128,168.516 510.128,167.823L510.128,165.614C510.128,165.046 510.633,164.667 511.264,164.667L511.516,164.667C514.546,165.046 519.153,165.362 521.425,165.362C525.527,165.362 527.673,164.29 527.673,160.882C527.673,158.987 526.537,157.788 522.939,155.643L516.565,151.856C512.716,149.52 510.128,146.807 510.128,142.831C510.128,136.268 515.051,134.438 521.551,134.438C525.085,134.438 528.43,134.753 531.396,135.259C532.217,135.384 532.596,135.827 532.596,136.52L532.596,138.602C532.596,139.36 532.153,139.677 531.522,139.677L531.333,139.677C529.124,139.487 525.085,139.171 521.551,139.171C518.016,139.171 515.682,139.612 515.682,142.831C515.682,144.725 517.133,145.925 520.036,147.628L526.284,151.35C531.522,154.444 533.226,157.157 533.226,160.882C533.226,167.319 528.493,170.032 521.425,170.032Z" style="fill:rgb(243,203,45);fill-rule:nonzero;"></path>
<path d="M557.462,169.716C556.199,169.905 554.558,170.032 553.359,170.032C547.554,170.032 544.776,168.516 544.776,161.575L544.776,139.55L538.654,138.856C537.961,138.792 537.456,138.413 537.456,137.719L537.456,136.016C537.456,135.321 537.961,134.88 538.654,134.88L544.776,134.88L544.776,128.694C544.776,128.063 545.219,127.559 545.912,127.432L549.194,126.928L549.384,126.928C549.889,126.928 550.33,127.37 550.33,128.001L550.33,134.88L557.146,134.88C557.84,134.88 558.408,135.448 558.408,136.141L558.408,138.288C558.408,138.981 557.84,139.55 557.146,139.55L550.33,139.55L550.33,161.575C550.33,165.046 551.214,165.552 553.738,165.552L557.272,165.552C558.156,165.552 558.598,165.803 558.598,166.434L558.598,168.643C558.598,169.212 558.282,169.591 557.462,169.716Z" style="fill:rgb(243,203,45);fill-rule:nonzero;"></path>
<path d="M569.832,169.591L566.55,169.591C565.919,169.591 565.414,169.022 565.414,168.329L565.414,123.331C565.414,122.7 565.855,122.132 566.55,122.132L569.832,122.132C570.463,122.132 570.968,122.636 570.968,123.331L570.968,168.329C570.968,168.96 570.525,169.591 569.832,169.591Z" style="fill:rgb(243,203,45);fill-rule:nonzero;"></path>
<path d="M585.482,169.591L582.453,169.591C581.759,169.591 581.19,169.022 581.19,168.329L581.19,136.141C581.19,135.448 581.759,134.88 582.453,134.88L585.482,134.88C586.177,134.88 586.744,135.448 586.744,136.141L586.744,168.329C586.744,169.022 586.177,169.591 585.482,169.591ZM585.608,129.325L582.39,129.325C581.695,129.325 581.128,128.759 581.128,128.063L581.128,123.014C581.128,122.321 581.695,121.753 582.39,121.753L585.608,121.753C586.303,121.753 586.871,122.321 586.871,123.014L586.871,128.063C586.871,128.759 586.303,129.325 585.608,129.325Z" style="fill:rgb(243,203,45);fill-rule:nonzero;"></path>
<path d="M616.596,169.339C614.513,169.716 611.673,170.032 608.706,170.032C600.123,170.032 595.264,163.973 595.264,154.696L595.264,149.774C595.264,140.497 600.06,134.438 608.706,134.438C611.609,134.438 614.513,134.753 616.596,135.132C617.605,135.321 617.857,135.637 617.857,136.52L617.857,138.792C617.857,139.423 617.352,139.739 616.784,139.739L616.532,139.739C613.755,139.423 611.799,139.298 608.706,139.298C603.657,139.298 600.817,142.641 600.817,149.774L600.817,154.696C600.817,161.764 603.595,165.173 608.706,165.173C611.799,165.173 613.755,165.046 616.532,164.731L616.784,164.731C617.352,164.731 617.857,165.046 617.857,165.677L617.857,167.95C617.857,168.77 617.605,169.149 616.596,169.339Z" style="fill:rgb(243,203,45);fill-rule:nonzero;"></path>
<path d="M650.549,169.591L647.519,169.591C646.825,169.591 646.258,169.022 646.258,168.329L646.258,147.565C646.258,141.253 643.606,139.298 639.505,139.298C637.548,139.298 633.572,139.802 630.795,141.065L630.795,168.329C630.795,168.96 630.227,169.591 629.533,169.591L626.44,169.591C625.809,169.591 625.242,169.022 625.242,168.329L625.242,123.393C625.242,122.7 625.746,122.132 626.44,122.132L629.597,122.132C630.291,122.132 630.795,122.7 630.795,123.393L630.795,136.393C633.824,135.069 637.737,134.438 640.451,134.438C647.141,134.438 651.811,138.288 651.811,147.565L651.811,168.329C651.811,169.022 651.243,169.591 650.549,169.591Z" style="fill:rgb(243,203,45);fill-rule:nonzero;"></path>
<path d="M681.852,149.206C681.852,142.075 679.139,139.298 673.585,139.298C668.157,139.298 665.128,142.389 665.128,149.206L665.128,149.774L681.852,149.774L681.852,149.206ZM686.27,154.003L665.128,154.003L665.128,154.886C665.128,162.395 668.095,165.173 673.9,165.173C677.56,165.173 682.231,164.921 685.134,164.477L685.449,164.477C685.955,164.477 686.459,164.731 686.459,165.362L686.459,167.507C686.459,168.329 686.207,168.77 685.197,168.96C681.599,169.653 678.129,170.032 673.9,170.032C666.642,170.032 659.574,166.624 659.574,154.886L659.574,149.206C659.574,140.18 664.56,134.438 673.585,134.438C682.799,134.438 687.469,140.243 687.469,149.206L687.469,152.614C687.469,153.434 687.027,154.003 686.27,154.003Z" style="fill:rgb(243,203,45);fill-rule:nonzero;"></path>
<path d="M705.518,170.032C703.183,170.032 698.64,169.843 695.547,169.085C694.726,168.895 694.222,168.516 694.222,167.823L694.222,165.614C694.222,165.046 694.726,164.667 695.357,164.667L695.61,164.667C698.64,165.046 703.247,165.362 705.518,165.362C709.621,165.362 711.766,164.29 711.766,160.882C711.766,158.987 710.631,157.788 707.033,155.643L700.659,151.856C696.809,149.52 694.222,146.807 694.222,142.831C694.222,136.268 699.144,134.438 705.644,134.438C709.179,134.438 712.523,134.753 715.49,135.259C716.31,135.384 716.689,135.827 716.689,136.52L716.689,138.602C716.689,139.36 716.247,139.677 715.616,139.677L715.427,139.677C713.218,139.487 709.179,139.171 705.644,139.171C702.11,139.171 699.775,139.612 699.775,142.831C699.775,144.725 701.227,145.925 704.13,147.628L710.378,151.35C715.616,154.444 717.32,157.157 717.32,160.882C717.32,167.319 712.587,170.032 705.518,170.032Z" style="fill:rgb(243,203,45);fill-rule:nonzero;"></path>
<path d="M414.955,230.432C410.537,230.432 407.256,229.991 404.478,229.55C403.406,229.36 403.279,229.106 403.279,228.413L403.279,225.887C403.279,225.194 403.785,224.878 404.352,224.878L404.542,224.878C407.445,225.132 412.052,225.257 414.955,225.257C422.528,225.257 424.548,222.227 424.548,217.809C424.548,214.655 422.718,212.887 416.974,209.354L410.853,205.63C405.047,202.096 402.143,198.878 402.143,193.829C402.143,186.192 407.635,182.657 417.227,182.657C420.951,182.657 425.81,183.036 428.208,183.415C428.84,183.542 429.281,183.856 429.281,184.487L429.281,187.202C429.281,187.833 428.84,188.212 428.208,188.212L428.082,188.212C425.306,188.022 420.888,187.833 417.227,187.833C410.726,187.833 407.95,189.221 407.95,193.829C407.95,196.794 410.032,198.561 414.829,201.466L420.635,204.936C427.956,209.29 430.543,212.761 430.543,217.809C430.543,223.868 427.388,230.432 414.955,230.432Z" style="fill:rgb(222,88,160);fill-rule:nonzero;"></path>
<path d="M459.7,210.237C459.7,203.8 457.113,199.698 451.181,199.698C445.311,199.698 442.724,203.737 442.724,210.237L442.724,215.034C442.724,221.471 445.248,225.573 451.181,225.573C457.05,225.573 459.7,221.534 459.7,215.034L459.7,210.237ZM451.181,230.432C441.903,230.432 437.17,224.311 437.17,215.034L437.17,210.237C437.17,200.96 441.903,194.839 451.181,194.839C460.458,194.839 465.254,200.96 465.254,210.237L465.254,215.034C465.254,224.311 460.458,230.432 451.181,230.432Z" style="fill:rgb(222,88,160);fill-rule:nonzero;"></path>
<path d="M493.654,229.991L474.596,229.991C471.882,229.991 470.746,228.286 470.746,226.52L470.746,225.321C470.746,223.553 471.124,222.606 472.197,221.218L488.479,200.96C488.605,200.77 488.732,200.581 488.732,200.391C488.732,200.139 488.605,199.95 488.101,199.95L472.766,199.95C472.071,199.95 471.503,199.382 471.503,198.688L471.503,196.542C471.503,195.848 472.071,195.28 472.766,195.28L491.319,195.28C493.907,195.28 494.853,196.479 494.853,198.372L494.853,199.887C494.853,201.212 494.412,202.159 493.402,203.358L476.805,224.122C476.552,224.374 476.488,224.626 476.488,224.815C476.488,225.132 476.552,225.321 476.994,225.321L493.654,225.321C494.349,225.321 494.917,225.887 494.917,226.583L494.917,228.729C494.917,229.423 494.349,229.991 493.654,229.991Z" style="fill:rgb(222,88,160);fill-rule:nonzero;"></path>
<path d="M507.666,229.991L504.637,229.991C503.942,229.991 503.374,229.423 503.374,228.729L503.374,196.542C503.374,195.848 503.942,195.28 504.637,195.28L507.666,195.28C508.36,195.28 508.928,195.848 508.928,196.542L508.928,228.729C508.928,229.423 508.36,229.991 507.666,229.991ZM507.792,189.725L504.573,189.725C503.879,189.725 503.311,189.159 503.311,188.464L503.311,183.415C503.311,182.721 503.879,182.153 504.573,182.153L507.792,182.153C508.486,182.153 509.055,182.721 509.055,183.415L509.055,188.464C509.055,189.159 508.486,189.725 507.792,189.725Z" style="fill:rgb(222,88,160);fill-rule:nonzero;"></path>
<path d="M537.202,213.204L532.532,213.204C524.895,213.204 522.875,214.907 522.875,219.387L522.875,220.145C522.875,224.69 525.021,225.887 528.682,225.887C531.585,225.887 534.173,225.005 537.202,223.364L537.202,213.204ZM541.493,229.991L538.591,229.991C537.896,229.991 537.328,229.423 537.328,228.729L537.328,227.341C534.299,229.106 531.143,230.432 527.609,230.432C522.245,230.432 517.322,228.096 517.322,220.208L517.322,219.452C517.322,212.636 521.297,209.227 532.532,209.227L537.202,209.227L537.202,206.702C537.202,201.401 535.372,199.571 530.449,199.571C526.347,199.571 523.317,199.823 520.793,200.077L520.477,200.077C519.909,200.077 519.341,199.887 519.341,199.067L519.341,196.858C519.341,196.163 519.783,195.784 520.667,195.659C523.255,195.218 526.158,194.839 530.449,194.839C539.222,194.839 542.756,199.257 542.756,206.702L542.756,228.729C542.756,229.423 542.187,229.991 541.493,229.991Z" style="fill:rgb(222,88,160);fill-rule:nonzero;"></path>
<path d="M556.703,229.991L553.422,229.991C552.791,229.991 552.286,229.423 552.286,228.729L552.286,183.731C552.286,183.1 552.727,182.532 553.422,182.532L556.703,182.532C557.335,182.532 557.84,183.036 557.84,183.731L557.84,228.729C557.84,229.36 557.397,229.991 556.703,229.991Z" style="fill:rgb(222,88,160);fill-rule:nonzero;"></path>
<path d="M610.283,196.794L604.162,226.077C603.342,230.053 602.647,230.432 598.86,230.432C595.579,230.432 594.695,229.864 593.685,225.887L588.195,204.43C588.068,203.989 588.068,203.989 587.88,203.989C587.69,203.989 587.69,203.989 587.564,204.43L582.073,225.887C581.127,229.55 580.18,230.432 576.898,230.432C573.111,230.432 572.418,229.991 571.597,226.077L565.475,196.794L565.475,196.542C565.475,195.911 565.98,195.28 566.675,195.28L570.082,195.28C570.65,195.28 571.092,195.784 571.155,196.29L576.393,225.067C576.519,225.825 576.709,225.825 576.898,225.825C577.088,225.825 577.277,225.636 577.403,225.067L583.588,200.833C583.967,199.446 584.787,198.94 586.112,198.94L589.646,198.94C590.972,198.94 591.792,199.446 592.171,200.833L598.355,225.067C598.482,225.636 598.672,225.825 598.86,225.825C599.05,225.825 599.239,225.825 599.365,225.067L604.603,196.29C604.667,195.784 605.108,195.28 605.677,195.28L609.085,195.28C609.779,195.28 610.283,195.911 610.283,196.542L610.283,196.794Z" style="fill:rgb(222,88,160);fill-rule:nonzero;"></path>
<path d="M637.485,209.606C637.485,202.475 634.771,199.698 629.218,199.698C623.79,199.698 620.761,202.79 620.761,209.606L620.761,210.175L637.485,210.175L637.485,209.606ZM641.903,214.403L620.761,214.403L620.761,215.286C620.761,222.796 623.727,225.573 629.533,225.573C633.193,225.573 637.864,225.321 640.766,224.878L641.082,224.878C641.588,224.878 642.092,225.132 642.092,225.762L642.092,227.907C642.092,228.729 641.84,229.171 640.83,229.36C637.232,230.053 633.762,230.432 629.533,230.432C622.275,230.432 615.207,227.024 615.207,215.286L615.207,209.606C615.207,200.581 620.193,194.839 629.218,194.839C638.432,194.839 643.101,200.643 643.101,209.606L643.101,213.014C643.101,213.835 642.66,214.403 641.903,214.403Z" style="fill:rgb(222,88,160);fill-rule:nonzero;"></path>
<path d="M665.254,199.634C662.35,199.634 659.7,200.391 656.545,202.286L656.545,228.729C656.545,229.36 655.976,229.991 655.282,229.991L652.189,229.991C651.558,229.991 650.99,229.423 650.99,228.729L650.99,196.542C650.99,195.848 651.496,195.28 652.189,195.28L655.156,195.28C655.85,195.28 656.355,195.848 656.355,196.542L656.355,197.868C659.511,195.659 662.414,194.839 665.254,194.839C666.137,194.839 666.579,195.218 666.579,195.973L666.579,198.561C666.579,199.257 666.137,199.634 665.254,199.634Z" style="fill:rgb(222,88,160);fill-rule:nonzero;"></path>
<path d="M696.998,229.991L692.454,229.991C691.76,229.991 691.508,229.802 691.003,229.171L678.443,213.645L678.443,228.729C678.443,229.423 677.876,229.991 677.182,229.991L674.152,229.991C673.458,229.991 672.891,229.423 672.891,228.729L672.891,183.794C672.891,183.1 673.458,182.532 674.152,182.532L677.182,182.532C677.876,182.532 678.443,183.1 678.443,183.794L678.443,210.048L691.066,195.848C691.444,195.407 691.697,195.28 692.328,195.28L696.746,195.28C697.377,195.28 697.692,195.594 697.692,195.973C697.692,196.227 697.566,196.479 697.377,196.669L683.492,211.688L697.503,228.602C697.629,228.729 697.692,228.981 697.692,229.171C697.692,229.612 697.44,229.991 696.998,229.991Z" style="fill:rgb(222,88,160);fill-rule:nonzero;"></path>
<path d="M81.916,191.024C79.322,190.972 76.596,191.141 73.995,191.085C70.156,191.041 67.142,194.152 66.976,198.52L66.828,252.441C52.266,248.139 45.872,244.518 32.052,239.71L32.052,198.353C32.134,194.475 31.149,191.194 27.368,191.085C24.789,191.001 20.432,191.173 17.84,191.085C15.978,191.027 15.125,190.898 13.803,192.174C12.501,193.433 11.778,195.117 11.77,196.912L11.77,285.507C11.77,295.037 20.208,299.15 22.938,301.062C24.971,302.487 27.109,303.103 29.019,302.238C30.871,301.401 32.004,299.523 32.052,297.215L32.052,261.285C45.773,266.831 51.895,270.133 66.828,275.242L66.828,322.323C66.828,334.996 77.285,337.715 79.918,338.909C80.759,339.292 81.631,339.482 82.488,339.482C83.542,339.482 84.574,339.195 85.497,338.625C87.382,337.462 88.517,335.311 88.612,332.726L88.612,199.267C88.699,196.893 87.9,194.634 86.419,193.07C85.199,191.781 83.596,191.054 81.916,191.024Z" style="fill:rgb(222,88,160);fill-rule:nonzero;"></path>
<path d="M150.337,217.164C150.461,217.164 150.588,217.165 150.713,217.167C156.545,217.281 174.293,219.578 174.096,270.774L173.935,278.087C173.853,301.133 170.467,318.182 162.916,324.734C159.367,327.814 155.023,328.949 149.664,328.204C132.708,325.695 123.937,315.855 124.874,282.533L124.836,266.99C125.746,234.785 134.652,217.164 150.337,217.164ZM151.085,192.175C137.342,192.273 125.803,198.505 117.715,210.197C109.135,222.6 105.271,240.65 104.483,264.514L104.483,279.42C102.909,326.909 117.869,345.591 147.49,350.507L147.531,350.514C149.627,350.839 151.685,351 153.699,351C162.043,351 169.623,348.232 175.882,342.846C189.452,331.171 196.556,310.889 196.428,278.269L196.398,270.906C196.17,202.521 167.935,192.225 151.085,192.175Z" style="fill:rgb(222,88,160);fill-rule:nonzero;"></path>
<path d="M244.275,267.841C241.504,268.186 236.578,268.347 232.753,268.429L232.651,218.261C236.195,217.865 239.798,217.594 243.231,217.485C261.577,216.989 268.74,220.306 269.387,239.55C270.081,260.742 263.035,265.406 244.275,267.841ZM291.039,241.243C289.857,209.12 273.109,191.014 242.64,190.958C233.183,191.036 225.532,190.958 217.67,191.066C217.646,191.067 217.577,191.085 217.577,191.085C216.907,191.226 216.22,191.538 215.552,191.943C212.481,193.804 210.687,197.213 210.687,200.804L210.687,332.913C210.719,342.163 212.166,344.613 213.882,346.123C215.009,347.114 216.379,347.64 217.797,347.64C218.02,347.64 218.244,347.627 218.469,347.601C221.447,347.255 225.14,346.854 228.124,346.409C232.263,345.787 233.691,341.38 233.62,337.364L233.62,293.734C237.223,293.695 241.64,293.559 245.715,292.974L245.742,292.971C260.189,290.797 271.493,289.353 279.34,279.72C287.816,269.315 291.686,258.846 291.039,241.243Z" style="fill:rgb(222,88,160);fill-rule:nonzero;"></path>
<path d="M358.589,283.124C358.578,281.122 357.614,279.47 356.009,278.706C355.23,278.334 353.407,278.019 350.825,279.553C341.295,285.213 322.663,296.573 322.462,296.465C322.066,296.254 322.462,270.191 322.462,270.191C337.049,264.157 336.48,263.516 350.103,257.313C353.04,255.976 355.142,252.696 355.129,249.564L355.098,244.038C355.089,242.026 354.193,240.253 352.64,239.173C351.051,238.068 347.671,238.521 345.668,239.222C332.827,243.721 336.253,243.256 322.462,247.473L322.462,234.268C321.983,221.545 323.104,215.249 336.381,212.537C346.032,210.566 343.604,211.225 353.629,209.593C356.567,209.114 358.721,206.82 358.705,203.791L358.666,196.518C358.651,193.615 356.596,191.313 353.861,190.958L353.86,190.958C353.86,190.958 334.937,190.968 334.242,190.989C323.575,191.303 314.902,194.048 309.416,199.8C302.845,206.689 300.578,215.212 301.144,230.06L301.144,314.463C301.06,323.764 304.736,330.379 313.171,329.127C315.438,328.791 350.969,302.15 356.305,296.43L356.344,296.388C357.699,294.891 358.639,292.49 358.63,290.544L358.589,283.124Z" style="fill:rgb(222,88,160);fill-rule:nonzero;"></path>
<path d="M117.559,113.419C107.312,121.643 95.126,137.456 88.727,158.963C86.958,164.908 91.491,170.864 97.693,170.86L272.175,170.744C278.091,170.74 282.574,165.295 281.316,159.515C278.335,145.825 271.493,136.969 265.61,129.639C229.206,84.277 162.921,77.015 117.559,113.419Z" style="fill:rgb(252,221,44);fill-rule:nonzero;"></path>
<path d="M66.344,156.483C66.344,163.386 19.401,168.982 12.498,168.982C5.595,168.982 0,163.386 0,156.483C0,149.58 5.595,143.985 12.498,143.985C19.401,143.985 66.344,149.58 66.344,156.483Z" style="fill:rgb(249,238,96);fill-rule:nonzero;"></path>
<path d="M302.367,156.483C302.367,149.58 349.31,143.985 356.213,143.985C363.116,143.985 368.711,149.58 368.711,156.483C368.711,163.386 363.116,168.982 356.213,168.982C349.31,168.982 302.367,163.386 302.367,156.483Z" style="fill:rgb(249,238,96);fill-rule:nonzero;"></path>
<path d="M184.264,67.218C177.361,67.218 171.765,20.275 171.765,13.372C171.765,6.469 177.361,0.873 184.264,0.873C191.166,0.873 196.762,6.469 196.762,13.372C196.762,20.275 191.166,67.218 184.264,67.218Z" style="fill:rgb(249,238,96);fill-rule:nonzero;"></path>
<path d="M107.007,94.977C102.126,99.858 64.975,70.621 60.094,65.74C55.213,60.859 55.213,52.945 60.094,48.064C64.975,43.183 72.889,43.183 77.769,48.064C82.65,52.945 111.888,90.096 107.007,94.977Z" style="fill:rgb(249,238,96);fill-rule:nonzero;"></path>
<path d="M261.704,94.977C256.823,90.096 286.06,52.945 290.941,48.064C295.822,43.183 303.736,43.183 308.617,48.064C313.498,52.945 313.498,60.859 308.617,65.74C303.736,70.621 266.585,99.858 261.704,94.977Z" style="fill:rgb(249,238,96);fill-rule:nonzero;"></path>
<path d="M287.413,123.858C284.606,117.553 325.214,93.347 331.52,90.54C337.826,87.732 345.214,90.568 348.022,96.874C350.829,103.18 347.993,110.568 341.688,113.375C335.382,116.183 290.221,130.164 287.413,123.858Z" style="fill:rgb(243,203,45);fill-rule:nonzero;"></path>
<path d="M82.377,122.402C79.903,128.847 34.072,117.248 27.628,114.774C21.184,112.3 17.965,105.071 20.439,98.627C22.913,92.183 30.142,88.964 36.586,91.438C43.03,93.912 84.85,115.958 82.377,122.402Z" style="fill:rgb(243,203,45);fill-rule:nonzero;"></path>
<path d="M142.987,75.742C136.681,78.55 112.475,37.941 109.668,31.635C106.86,25.329 109.696,17.941 116.002,15.133C122.308,12.326 129.696,15.162 132.504,21.468C135.311,27.774 149.293,72.934 142.987,75.742Z" style="fill:rgb(252,221,44);fill-rule:nonzero;"></path>
<path d="M228.329,76.298C221.884,73.825 233.483,27.994 235.957,21.55C238.431,15.106 245.66,11.887 252.104,14.36C258.549,16.834 261.767,24.064 259.294,30.508C256.82,36.952 234.773,78.772 228.329,76.298Z" style="fill:rgb(252,221,44);fill-rule:nonzero;"></path>
</g>
</svg>